<?xml version="1.0" encoding="UTF-8"?>
<svg id="Assinatura" xmlns="http://www.w3.org/2000/svg" viewBox="0 0 346.16 341.06">
  <path d="M251.41,169.55l-75.73.92c-2.9.04-5.45-1.64-6.67-4.36-.63-1.42-.69-3.21-.12-5.25l13.53-75.52c.23-1.28-.62-2.51-1.91-2.74l-14.31-2.56c-1.28-.23-2.51.62-2.74,1.91l-9.02,50.33c-.53,2.95-4.44,3.66-5.97,1.08l-11.92-20.08c-.32-.54-.83-.93-1.45-1.08-.61-.16-1.25-.06-1.79.26l-12.5,7.42c-1.11.67-1.49,2.11-.82,3.24l38.67,65.12c1.48,2.49,1.31,5.54-.44,7.96-.91,1.26-2.43,2.2-4.48,2.72l-72.17,26.04c-.6.22-1.07.65-1.34,1.22-.27.57-.3,1.21-.08,1.8l4.93,13.67c.21.59.65,1.07,1.22,1.34.57.27,1.21.3,1.81.08l45.89-16.56c3.58-1.29,6.85,2.56,4.98,5.88l-10.28,18.32c-.64,1.14-.23,2.58.9,3.21l12.68,7.12c1.14.63,2.57.23,3.21-.91l37.07-66.05c1.42-2.53,4.15-3.91,7.11-3.59,1.55.16,3.12,1,4.6,2.52l58.64,49.48c.85.72,2.07.73,2.93.09.14-.11.28-.23.4-.37l9.37-11.11c.41-.48.6-1.1.55-1.72-.05-.63-.35-1.2-.83-1.6l-37.54-31.67c-2.82-2.38-1.17-6.99,2.52-7.04l21.34-.26c1.3-.01,2.35-1.08,2.33-2.39l-.18-14.53c0-.63-.26-1.22-.72-1.66-.45-.44-1.05-.68-1.68-.67Z"/>
</svg>